<svg width="35" height="43" viewBox="0 0 35 43" fill="none" xmlns="http://www.w3.org/2000/svg">
<path d="M21.1264 2.63187V2.23855C21.1264 1.55452 20.5719 1 19.8878 1H3.06424C1.92419 1 1 1.92419 1 3.06424V34.3933C1 35.0773 1.55452 35.6319 2.23855 35.6319H3.35714" stroke="#707078" stroke-width="1.6" stroke-linecap="round"/>
<path d="M10.25 11.6992H22.217" stroke="#707078" stroke-width="1.6" stroke-linecap="round"/>
<path d="M10.25 30.375H26.5687" stroke="#707078" stroke-width="1.6" stroke-linecap="round"/>
<path d="M10.25 16.4121H22.217" stroke="#707078" stroke-width="1.6" stroke-linecap="round"/>
<path d="M10.25 35.0879H26.5687" stroke="#707078" stroke-width="1.6" stroke-linecap="round"/>
<path d="M10.25 21.127H29.8324" stroke="#707078" stroke-width="1.6" stroke-linecap="round"/>
<path d="M10.6094 25.8418H30.1918" stroke="#707078" stroke-width="1.6" stroke-linecap="round"/>
<path d="M34.0012 13.3305L26.5671 5.89648H25.8419M34.0012 13.3305V28.0174V40.0151C34.0012 40.6991 33.4467 41.2536 32.7627 41.2536H24.754H7.31667C6.63264 41.2536 6.07812 40.6991 6.07812 40.0151V7.13503C6.07812 6.451 6.63264 5.89648 7.31667 5.89648H25.8419M34.0012 13.3305H27.0804C26.3964 13.3305 25.8419 12.776 25.8419 12.092V5.89648" stroke="#707078" stroke-width="1.6" stroke-linecap="round"/>
<path d="M23.6654 5.35161V4.41433C23.6654 3.7303 23.1109 3.17578 22.4269 3.17578H5.19046C4.27842 3.17578 3.53906 3.91514 3.53906 4.82718V36.5691C3.53906 37.2531 4.09358 37.8076 4.77761 37.8076H6.07752" stroke="#707078" stroke-width="1.6" stroke-linecap="round"/>
</svg>
