<svg width="34" height="42" viewBox="0 0 34 42" fill="none" xmlns="http://www.w3.org/2000/svg">
<path d="M5.00781 6.57617H16.5078" stroke="#707078" stroke-width="1.6" stroke-linecap="round"/>
<path d="M5.00781 24.5234H20.6896" stroke="#707078" stroke-width="1.6" stroke-linecap="round"/>
<path d="M5.00781 11.1055H16.5078" stroke="#707078" stroke-width="1.6" stroke-linecap="round"/>
<path d="M5.00781 29.0527H20.6896" stroke="#707078" stroke-width="1.6" stroke-linecap="round"/>
<path d="M5.00781 15.6367H23.826" stroke="#707078" stroke-width="1.6" stroke-linecap="round"/>
<path d="M5.35938 20.166H24.1776" stroke="#707078" stroke-width="1.6" stroke-linecap="round"/>
<path d="M18.947 34.9773H2.04546C1.46807 34.9773 1 34.5092 1 33.9318V2.04545C1 1.46807 1.46807 1 2.04545 1H19.9924M27.8333 8.14394L20.6894 1H19.9924M27.8333 8.14394V22.2576M27.8333 8.14394H21.0379C20.4605 8.14394 19.9924 7.67587 19.9924 7.09848V1" stroke="#707078" stroke-width="1.6" stroke-linecap="round"/>
<path d="M24.1719 28.7039V32.1887H30.6188V28.7039C30.6188 27.1642 29.3707 25.916 27.831 25.916H26.9598C25.4201 25.916 24.1719 27.1642 24.1719 28.7039Z" stroke="#707078" stroke-width="1.6" stroke-linecap="round"/>
<path fill-rule="evenodd" clip-rule="evenodd" d="M33.2344 32.8873C33.2344 32.3099 32.7663 31.8418 32.1889 31.8418H22.7798C22.2024 31.8418 21.7344 32.3099 21.7344 32.8873V40.2054C21.7344 40.7828 22.2024 41.2509 22.7798 41.2509H32.1889C32.7663 41.2509 33.2344 40.7828 33.2344 40.2054V32.8873ZM27.4844 37.766C28.158 37.766 28.7041 37.22 28.7041 36.5463C28.7041 35.8727 28.158 35.3266 27.4844 35.3266C26.8108 35.3266 26.2647 35.8727 26.2647 36.5463C26.2647 37.22 26.8108 37.766 27.4844 37.766Z" fill="#707078"/>
</svg>
