<svg width="34" height="43" viewBox="0 0 34 43" fill="none" xmlns="http://www.w3.org/2000/svg">
<path d="M14.5194 18.3324L16.1738 16.6708V23.599C16.1738 23.7906 16.2499 23.9744 16.3854 24.1098C16.5209 24.2453 16.7046 24.3214 16.8962 24.3214C17.0878 24.3214 17.2716 24.2453 17.4071 24.1098C17.5426 23.9744 17.6187 23.7906 17.6187 23.599V16.6708L19.273 18.3324C19.3402 18.4002 19.4201 18.4539 19.5081 18.4906C19.5962 18.5273 19.6906 18.5461 19.786 18.5461C19.8813 18.5461 19.9758 18.5273 20.0638 18.4906C20.1518 18.4539 20.2317 18.4002 20.2989 18.3324C20.3666 18.2653 20.4204 18.1854 20.457 18.0973C20.4937 18.0093 20.5126 17.9149 20.5126 17.8195C20.5126 17.7241 20.4937 17.6297 20.457 17.5417C20.4204 17.4536 20.3666 17.3737 20.2989 17.3066L17.4092 14.4168C17.3405 14.3511 17.2594 14.2995 17.1708 14.2651C16.9949 14.1929 16.7976 14.1929 16.6217 14.2651C16.533 14.2995 16.452 14.3511 16.3833 14.4168L13.4936 17.3066C13.4262 17.3739 13.3728 17.4539 13.3363 17.5419C13.2999 17.6299 13.2811 17.7243 13.2811 17.8195C13.2811 17.9148 13.2999 18.0091 13.3363 18.0971C13.3728 18.1851 13.4262 18.2651 13.4936 18.3324C13.5609 18.3998 13.6409 18.4532 13.7289 18.4897C13.8169 18.5261 13.9112 18.5449 14.0065 18.5449C14.1017 18.5449 14.1961 18.5261 14.2841 18.4897C14.3721 18.4532 14.4521 18.3998 14.5194 18.3324ZM23.3982 21.4317C23.2066 21.4317 23.0228 21.5078 22.8873 21.6433C22.7518 21.7788 22.6757 21.9625 22.6757 22.1541V26.4887C22.6757 26.6803 22.5996 26.8641 22.4641 26.9996C22.3286 27.1351 22.1449 27.2112 21.9533 27.2112H11.8392C11.6476 27.2112 11.4638 27.1351 11.3283 26.9996C11.1929 26.8641 11.1167 26.6803 11.1167 26.4887V22.1541C11.1167 21.9625 11.0406 21.7788 10.9052 21.6433C10.7697 21.5078 10.5859 21.4317 10.3943 21.4317C10.2027 21.4317 10.019 21.5078 9.88347 21.6433C9.74799 21.7788 9.67188 21.9625 9.67188 22.1541V26.4887C9.67188 27.0636 9.90022 27.6148 10.3067 28.0213C10.7131 28.4277 11.2644 28.6561 11.8392 28.6561H21.9533C22.5281 28.6561 23.0794 28.4277 23.4858 28.0213C23.8923 27.6148 24.1206 27.0636 24.1206 26.4887V22.1541C24.1206 21.9625 24.0445 21.7788 23.909 21.6433C23.7735 21.5078 23.5898 21.4317 23.3982 21.4317Z" fill="#707078"/>
<path d="M32.7872 9.46282L24.3244 1H23.4987M32.7872 9.46282V26.1821V40.0115C32.7872 40.6955 32.2327 41.25 31.5487 41.25H22.2603H2.23846C1.55448 41.25 1 40.6955 1 40.0115V2.23846C1 1.55448 1.55448 1 2.23846 1H23.4987M32.7872 9.46282H24.7372C24.0532 9.46282 23.4987 8.90834 23.4987 8.22436V1" stroke="#707078" stroke-width="1.6" stroke-linecap="round"/>
</svg>
